# xmcd
#
# Track frame offsets: 
#        150
#        9195
#        31353
#        47190
#        64607
#        88198
#        102244
#        115347
#        133058
#
# Disc length: 1898 seconds
#
# Revision: 0
# Processed by: cddbd v1.5.2PL0 Copyright (c) Steve Scherf et al.
# Submitted via: ExactAudioCopy v1.0b1
#
DISCID=72076809
DTITLE=Crusher - Endless Torment
DYEAR=2012
DGENRE=Thrash Metal
TTITLE0=Intro
TTITLE1=On The Needle
TTITLE2=Den Of Iniquity
TTITLE3=Politishit
TTITLE4=Endless Torment
TTITLE5=S(k)atanic Ride
TTITLE6=Jesus Saves
TTITLE7=Living For...
TTITLE8=Thrasher In Hell
EXTD=
EXTT0=
EXTT1=
EXTT2=
EXTT3=
EXTT4=
EXTT5=
EXTT6=
EXTT7=
EXTT8=
PLAYORDER=
